<svg xmlns="http://www.w3.org/2000/svg" viewBox="0 0 507.99 146.6"><defs><style>.cls-1{fill:#020202;}</style></defs><g id="Capa_2" data-name="Capa 2"><g id="Capa_1-2" data-name="Capa 1"><path class="cls-1" d="M396.9,145.1c-.76-2.65-1.52-5.28-2.27-7.92q-2.14-7.58-4.28-15.16c-.12-.43-.25-.86-.39-1.28a1,1,0,0,0-1-.75l-1.33,0q-20.07,0-40.12,0c-2,0-2.15-.41-2.86,2.18-1.84,6.79-3.81,13.54-5.72,20.3-.17.6-.38,1.19-.51,1.8a1,1,0,0,1-1.09.94H309.29c-.35,0-.71,0-1-.06-.49-.54-.2-1,0-1.51.68-2.3,1.36-4.61,2-6.91a.59.59,0,0,0-.06-.49c-.2-.24-.47-.13-.67,0-.49.38-1,.79-1.46,1.18a41.19,41.19,0,0,1-23,8.95,57.88,57.88,0,0,1-19.62-1.6c-9-2.38-16.56-6.88-22.4-14.18l-.34-.41c-.17-.22-.36-.36-.66-.23s-.22.45-.23.69c0,.44,0,.89,0,1.34v11c0,.53,0,1.07-.06,1.6a.67.67,0,0,1-.72.63c-.36,0-.71,0-1.07,0H214.78c-.44,0-.89,0-1.33,0a.65.65,0,0,1-.66-.68c0-.8,0-1.6,0-2.41V61a4.7,4.7,0,0,0-1.12,2.25q-4.51,14.53-9,29.06l-15.66,50.5c-.16.51-.32,1-.49,1.52a1.12,1.12,0,0,1-1.15.92H164.69c-2,0-2,0-2.68-2.08-.93-3-1.85-6-2.77-8.92L136.8,62.32c-.12-.41-.1-.89-.62-1.12-.55,0-.31.51-.31.78q0,7.22,0,14.44,0,32.89,0,65.8c0,3.45.42,3-2.95,3H90.38c-1.5.05-1.56-.28-1.85-1.36-1-3.69-2.08-7.36-3.12-11.05-1.09-3.85-2.16-7.71-3.26-11.56-.34-1.19-.42-1.23-1.67-1.28-.35,0-.71,0-1.07,0q-19.92,0-39.85,0c-2.3,0-2.15-.32-2.85,2.17q-2.9,10.28-5.82,20.55c-.22.77-.45,1.54-.67,2.27-2.19.32-27.9.33-30.19,0a5.08,5.08,0,0,1,.49-2.31Q20.31,77,40.13,11.26q1.15-3.84,2.35-7.66c.45-1.45.47-1.44,2-1.48.27,0,.54,0,.81,0H74.2c.36,0,.71,0,1.07,0,1.23,0,1.26,0,1.65,1.3Q79,10.31,81.11,17.21,93.37,57.86,105.64,98.5c.22.75.48,1.5.81,2.54a2.42,2.42,0,0,0,.35-1.6c0-4.19,0-8.38,0-12.57q0-40.8,0-81.58c0-3.51-.51-3.16,3.08-3.17q14.17,0,28.35,0c.53,0,1.07,0,1.6,0,1.22,0,1.33.09,1.72,1.24q2.16,6.32,4.28,12.65l27.78,82.21c.22.67.46,1.34.72,2.08.75-.27.79-.91,1-1.45q5.26-15.69,10.52-31.39l21-62.79c.14-.42.28-.85.43-1.26.46-1.24.46-1.27,1.67-1.28,2.05,0,4.11,0,6.16,0h23.8c.71,0,1.43,0,2.14,0a.7.7,0,0,1,.7.66c.06.71.05,1.43.05,2.14,0,3.21,0,6.42,0,9.63A.63.63,0,0,0,242,15c.26.25.48.06.66-.13a7.57,7.57,0,0,0,.53-.6A39,39,0,0,1,263.83,1.72a54.5,54.5,0,0,1,29.3.58c14.06,4.3,23,13.73,27,27.83a47.45,47.45,0,0,1,1.73,10.26c.15,2.7.18,2.55-2.29,2.54H292c-1.27,0-1.43-.13-1.57-1.29a21,21,0,0,0-.76-3.93c-2.84-8.72-11-10.89-17.21-9.11a10,10,0,0,0-6.71,6,16.27,16.27,0,0,0-1,8.92,12,12,0,0,0,5.33,8.31c1.62,1.09,3.31,2.09,5,3a99.67,99.67,0,0,0,10.7,4.82,163.87,163.87,0,0,1,18.39,8.53,38.56,38.56,0,0,1,12.8,11.53,31.94,31.94,0,0,1,5.32,11.86c.12.51.27,1,.43,1.54a3.81,3.81,0,0,0,.41.59c9.23-30.59,18.42-61.06,27.64-91.65h31.42c.44,0,.89,0,1.34,0a1.13,1.13,0,0,1,1.17.89c.2.58.37,1.18.55,1.78q14,46.53,28,93.06a5.73,5.73,0,0,0,1.37,3.11c.08-1,.05-1.73.05-2.47q0-46.41,0-92.81c0-4.13-.59-3.55,3.49-3.55q22.47,0,44.93,0A51.23,51.23,0,0,1,478.83,4.2C491.09,8.06,499.59,16,504.08,28.06a54.22,54.22,0,0,1,3.06,24.19,49,49,0,0,1-4.36,16.43,36.47,36.47,0,0,1-19.71,19c-2.44,1-2.19.8-1.15,3q12.58,25.95,25.18,51.9c.38.77,1,1.47.86,2.44-2.13.26-29.69.3-32.41,0-.92-2-1.87-4-2.8-6q-10.47-22.81-20.94-45.63c-1.19-2.58-.64-2.16-3.55-2.2-1.07,0-2.14,0-3.21,0s-1.15.13-1.18,1.29c0,.71,0,1.42,0,2.14V142c0,.8,0,1.6,0,2.4a.76.76,0,0,1-.83.82H398.08C397.73,145.22,397.38,145.15,396.9,145.1Zm-155.13-76V94.6c0,2.14,0,4.28,0,6.42,0,1.25.13,1.37,1.39,1.37,4.1,0,8.2,0,12.29,0,2.41,0,4.81,0,7.22,0,2,0,1.8.2,2,1.66a21,21,0,0,0,2.1,7.13,12.84,12.84,0,0,0,9.4,7.19,17.35,17.35,0,0,0,7.94-.35,11.72,11.72,0,0,0,8.74-9.46,18.52,18.52,0,0,0,.21-4.53,12.42,12.42,0,0,0-3.45-8.18,25.38,25.38,0,0,0-7.75-5.59c-3.53-1.69-7.18-3.08-10.86-4.42a136,136,0,0,1-17.33-7.59,36.33,36.33,0,0,1-10.43-8.21C242.91,69.68,242.73,69.08,241.77,69.12Zm202.09-20.5v15c0,.71,0,1.42,0,2.13a.79.79,0,0,0,.87.79c.45,0,.89,0,1.34,0,5.25,0,10.51,0,15.76,0a22.1,22.1,0,0,0,3.72-.35c5.44-.85,9-3.94,10.9-9.05A24,24,0,0,0,477.77,49a22,22,0,0,0-1.84-9.88A13,13,0,0,0,467,31.69a23.18,23.18,0,0,0-5.56-.56c-5.08,0-10.15,0-15.23,0-.36,0-.71,0-1.07,0-1.1.05-1.25.19-1.3,1.2,0,.36,0,.71,0,1.07ZM353,92.8a10.17,10.17,0,0,0,1.17.17q13.23,0,26.45,0c.5,0,1.07.16,1.41-.41-1.27-5.56-13.64-49-14.67-51.29C362.57,58.57,357.81,75.59,353,92.8ZM59.41,41.59c-.2.58-.42,1.12-.58,1.67Q52.17,67.16,45.52,91a11.33,11.33,0,0,0-.26,1.29.5.5,0,0,0,.41.58,5.3,5.3,0,0,0,1.06.06q12.95,0,25.9,0a6.11,6.11,0,0,0,1.05-.08.47.47,0,0,0,.39-.58c-.08-.43-.23-.86-.35-1.28L60.22,43A2.2,2.2,0,0,0,59.41,41.59Z"/></g></g></svg>