<svg xmlns="http://www.w3.org/2000/svg" viewBox="0 0 182.73 174.26"><defs><style>.cls-1{fill:#1d1d1b;}</style></defs><g id="Capa_2" data-name="Capa 2"><g id="Capa_1-2" data-name="Capa 1"><g id="Capa_2-2" data-name="Capa 2"><g id="Capa_1-2-2" data-name="Capa 1-2"><path class="cls-1" d="M91.37,174.21H1.25c-.37,0-.82.16-1.09-.09S.05,173.41.05,173V49.84c0-.61,0-.62.63-.62h8.2a.23.23,0,0,1,.23.23h0c0,.31,0,.63,0,.94V164c0,1.4-.2,1.24,1.25,1.24H172.22c.39,0,.88.19,1.16-.14s.08-.73.08-1.1V10.53c0-1.43.21-1.24-1.25-1.24H143.93c-1.32,0-1.15.15-1.13-1.16,0-2.45.06-4.9.1-7.35a3.52,3.52,0,0,1,0-.56.26.26,0,0,1,.17-.18,3.65,3.65,0,0,1,.66,0h37.89c1.2,0,1.06-.16,1.06,1V173.17c0,1.19.18,1-1.05,1Z"/><path class="cls-1" d="M54.33,6.83h3.3c.36,0,.45.09.43.45a8,8,0,0,1-1.49,4.49,6.75,6.75,0,0,1-5,2.75,8,8,0,0,1-3.16-.33,6.87,6.87,0,0,1-4.84-6.13A7.55,7.55,0,0,1,43.83,5,6.74,6.74,0,0,1,49.37.22,7.77,7.77,0,0,1,54,.75a6.55,6.55,0,0,1,3.85,4.37c.09.32,0,.44-.26.44h-3.3a.54.54,0,0,1-.46-.26,6.88,6.88,0,0,0-.58-.73A3.45,3.45,0,0,0,47.5,6.3a4.55,4.55,0,0,0,0,2.23,3.18,3.18,0,0,0,3,2.43,4.17,4.17,0,0,0,1.75-.23A3,3,0,0,0,53.46,10c.15-.17.45-.35.27-.62s-.4-.08-.61-.08H50.86c-.24,0-.33-.11-.33-.34V7.21c0-.29.09-.36.41-.37h3.39Z"/><path class="cls-1" d="M44.76,30.9a6.93,6.93,0,0,1-5.84,7,9,9,0,0,1-4.28-.21,7,7,0,0,1-4.95-7.8,7,7,0,0,1,6.55-6.21A9.19,9.19,0,0,1,39.7,24,6.91,6.91,0,0,1,44.76,30.9Zm-4-.07a3.49,3.49,0,0,0-2.23-3.39,3.67,3.67,0,1,0-.36,7A3.41,3.41,0,0,0,40.8,30.83Z"/><path class="cls-1" d="M2.42,30.92V25c0-.25,0-.5,0-.75A.25.25,0,0,1,2.68,24H8a8.1,8.1,0,0,1,2.59.39,6.51,6.51,0,0,1,4.54,6,7.39,7.39,0,0,1-.26,2.52,6.6,6.6,0,0,1-5.77,4.81,6.16,6.16,0,0,1-.75.05H2.85c-.41,0-.42,0-.43-.44V30.92Zm3.81-.09h0v3.11c0,.22.08.35.32.35.54,0,1.07,0,1.6,0a3.14,3.14,0,0,0,2.92-2.4,4.18,4.18,0,0,0,.09-1.41,3.09,3.09,0,0,0-3-3c-.47,0-.95,0-1.42,0s-.54,0-.54.51C6.22,29,6.23,29.88,6.23,30.83Z"/><path class="cls-1" d="M18.39,5.42H22a.32.32,0,0,0,.35-.28.06.06,0,0,0,0-.06c0-.26,0-.51,0-.76V1.21a1.17,1.17,0,0,1,.14-.79h3.34c.23,0,.32.15.33.37V14a.68.68,0,0,1-.58.16H23c-.59,0-.6,0-.6-.64V9.87c0-1,.05-1-1-1H18.77c-.5,0-.52,0-.52.54V14a.69.69,0,0,1-.58.16H14.74c-.21,0-.35-.1-.34-.33V1c0-.58,0-.6.57-.61H17.7l.28,0a.26.26,0,0,1,.25.24c0,.22,0,.44,0,.65V4.64A1.33,1.33,0,0,0,18.39,5.42Z"/><path class="cls-1" d="M106,.48a.84.84,0,0,1,.54-.07h5.09a6.72,6.72,0,0,1,2.13.33A4.6,4.6,0,0,1,117,5a4.4,4.4,0,0,1-1.82,4c-.33.25-.3.28-.12.61l2,3.63.43.82a.36.36,0,0,1-.34.15c-1.1,0-2.2,0-3.3,0a.77.77,0,0,1-.79-.51c-.51-1-1-2-1.58-3-.44-.82-.25-.68-1.23-.7h-.28a.19.19,0,0,0-.19.17,3.63,3.63,0,0,0,0,.57v3c0,.35-.06.43-.34.43h-3.21a.21.21,0,0,1-.21-.22h0c0-.16,0-.32,0-.47V1.22A1.25,1.25,0,0,1,106,.48Zm3.7,4.69V6.51c0,.14.07.26.2.26a16,16,0,0,0,2,0A1.45,1.45,0,0,0,112,3.9a2.31,2.31,0,0,0-.74-.09,3.44,3.44,0,0,0-1.46.11A5.53,5.53,0,0,0,109.71,5.17Z"/><path class="cls-1" d="M72.56,14.05a.38.38,0,0,1-.37.14H68.9c-.44,0-.46,0-.6-.44s-.31-.89-.45-1.34a.57.57,0,0,0-.63-.42c-1.32,0-2.64,0-3.95,0a.51.51,0,0,0-.56.4c-.16.5-.34,1-.51,1.51a.4.4,0,0,1-.33.29c-.31,0-3.32,0-3.73-.08-.09-.2,0-.36.12-.52q2.43-6.22,4.87-12.43c.06-.14.12-.29.17-.43a.4.4,0,0,1,.42-.3h3.11a.37.37,0,0,1,.37.23l.18.43,5,12.56ZM65.34,5c-.1.06-.19.08-.2.12-.43,1.26-.93,2.5-1.31,3.83,1,.08,1.91,0,2.91,0C66.31,7.63,65.82,6.34,65.34,5Z"/><path class="cls-1" d="M29.67,37.76h-3.8a.44.44,0,0,1-.47-.36c-.15-.45-.3-.89-.46-1.33s-.18-.5-.65-.51H20.52c-.63,0-.61,0-.8.56s-.31.89-.46,1.33c-.05.17-.14.29-.32.29-1.24,0-2.49,0-3.71,0-.12-.26,0-.42.09-.58q2.43-6.21,4.88-12.43c.05-.14.12-.28.17-.43a.39.39,0,0,1,.42-.3H23.9a.41.41,0,0,1,.41.31c.11.26.2.52.32.78L29.39,37C29.48,37.17,29.54,37.41,29.67,37.76Zm-7.28-9.24a1,1,0,0,0-.2.25c-.41,1.15-.82,2.3-1.22,3.45a.28.28,0,0,0,.11.36c.85,0,1.75,0,2.73,0-.46-1.37-.95-2.68-1.43-4Z"/><path class="cls-1" d="M103.48,3.73H99c-.34,0-.4.06-.4.37,0,.47,0,.94,0,1.41a.23.23,0,0,0,.22.24h0l.75,0h3.11c.33,0,.39.07.39.39V8.52a.3.3,0,0,1-.25.34H99.45c-.22,0-.44,0-.66,0a.2.2,0,0,0-.2.17,5.43,5.43,0,0,0,0,.57c0,.39-.17.89.1,1.18s.77.1,1.18.11h3.39c.47,0,.5,0,.5.45v2.45c0,.31-.07.38-.39.38H95.06a.23.23,0,0,1-.25-.21v0c0-.19,0-.38,0-.56V1.24c0-.91,0-.82.8-.82h7.73a.24.24,0,0,1,.23.24A24.17,24.17,0,0,1,103.48,3.73Z"/><path class="cls-1" d="M32.62,5.77h3.49c1.18,0,1-.09,1,1v1.6c0,.5,0,.51-.54.51H33c-.33,0-.39.06-.39.38v1.42a.23.23,0,0,0,.21.24h4.44c.47,0,.51,0,.51.46,0,.81,0,1.63,0,2.44,0,.32-.07.37-.39.4H29.21c-.3,0-.34-.08-.36-.42V.7a.27.27,0,0,1,.29-.27h8.21a.29.29,0,0,1,.29.29h0c0,.91,0,1.82,0,2.73a.25.25,0,0,1-.23.25h0l-.75,0H33c-.22,0-.35.08-.35.32Z"/><path class="cls-1" d="M123.79,5.23a1.29,1.29,0,0,0,.46-.66c.57-1.11,1.13-2.23,1.7-3.35s.29-.79,1.34-.8,2.06,0,3.07,0c.14.3-.06.46-.16.64-1.35,2.37-2.69,4.74-4.06,7.09a2.64,2.64,0,0,0-.39,1.42c0,1.22,0,2.45,0,3.67V14a.7.7,0,0,1-.57.15h-2.92c-.32,0-.38-.07-.38-.39,0-1.42,0-2.83,0-4.24a2.63,2.63,0,0,0-.38-1.42c-1.32-2.28-2.61-4.57-3.91-6.86-.1-.16-.2-.32-.29-.48s0-.36.21-.37c.88,0,1.76,0,2.64,0,1.39,0,1-.21,1.68,1S123,3.79,123.63,5A3.09,3.09,0,0,0,123.79,5.23Z"/><path class="cls-1" d="M1.46.45l.67,0H12.3c.33,0,.4.07.41.37V3.52c0,.23-.13.33-.35.33H10c-.25,0-.5,0-.75,0A.23.23,0,0,0,9,4.1H9c0,.25,0,.5,0,.75v9c0,.2-.12.28-.3.29H5.59c-.37,0-.41-.06-.42-.46V4.51c0-.7-.06-.65-.7-.66H1.83c-.21,0-.37-.07-.37-.31C1.45,2.54,1.46,1.54,1.46.45Z"/><path class="cls-1" d="M73.94,14.19V.72a.3.3,0,0,1,.28-.29h3.13c.38,0,.43.07.44.45,0,.22,0,.44,0,.66V9.72c0,.25,0,.5,0,.75a.23.23,0,0,0,.23.24c.22,0,.44,0,.66,0h3.58c.33,0,.39.06.39.39v2.73c0,.23-.09.35-.33.34h-8.4Z"/><path class="cls-1" d="M93.11,14.05a.84.84,0,0,1-.6.14H85a2.36,2.36,0,0,1-.38,0,.24.24,0,0,1-.24-.24c0-.18,0-.37,0-.56V.93c0-.45.06-.5.48-.51.69,0,1.38,0,2.07,0h.95c.31,0,.36.09.37.42s0,.5,0,.75V9.7c0,.25,0,.5,0,.75s.13.27.31.27h4.14c.35,0,.42.07.43.36C93.12,12.09,93.11,13.09,93.11,14.05Z"/></g></g></g></g></svg>